<svg width="299" height="80" viewBox="0 0 299 80" fill="none" xmlns="http://www.w3.org/2000/svg">
<rect width="299" height="80" fill="#E5E5E5"/>
<rect x="-107" y="-38" width="475" height="145" fill="#111827"/>
<rect x="71" width="228" height="80" rx="10" fill="#A855F7"/>
<path d="M147.35 63.576C144.363 63.576 141.867 62.936 139.862 61.656C137.899 60.376 136.406 58.6053 135.382 56.344C134.358 54.0827 133.76 51.4587 133.59 48.472L139.99 46.744C140.118 48.5787 140.395 50.3493 140.822 52.056C141.291 53.7627 142.038 55.1707 143.062 56.28C144.086 57.3467 145.515 57.88 147.35 57.88C149.227 57.88 150.635 57.368 151.574 56.344C152.555 55.2773 153.046 53.7627 153.046 51.8C153.046 49.4533 152.512 47.576 151.446 46.168C150.379 44.7173 149.035 43.2667 147.414 41.816L138.71 34.136C137.003 32.6427 135.744 31.0213 134.934 29.272C134.123 27.48 133.718 25.2827 133.718 22.68C133.718 18.8827 134.806 15.9387 136.982 13.848C139.158 11.7573 142.123 10.712 145.878 10.712C147.926 10.712 149.718 10.9893 151.254 11.544C152.832 12.056 154.134 12.8667 155.158 13.976C156.224 15.0853 157.056 16.4933 157.654 18.2C158.294 19.864 158.72 21.8267 158.934 24.088L152.79 25.752C152.662 24.0453 152.406 22.488 152.022 21.08C151.638 19.6293 150.955 18.4773 149.974 17.624C149.035 16.728 147.67 16.28 145.878 16.28C144.086 16.28 142.678 16.7707 141.654 17.752C140.672 18.6907 140.182 20.0987 140.182 21.976C140.182 23.5547 140.438 24.856 140.95 25.88C141.504 26.904 142.379 27.9493 143.574 29.016L152.342 36.696C154.304 38.4027 156.032 40.4507 157.526 42.84C159.019 45.1867 159.766 47.9813 159.766 51.224C159.766 53.784 159.232 56.0027 158.166 57.88C157.099 59.7147 155.627 61.1227 153.75 62.104C151.915 63.0853 149.782 63.576 147.35 63.576ZM175.04 63.512C172.138 63.512 169.898 62.9573 168.32 61.848C166.741 60.696 165.632 59.032 164.992 56.856C164.394 54.6373 164.096 51.928 164.096 48.728V40.28C164.096 36.9947 164.416 34.264 165.056 32.088C165.696 29.912 166.805 28.2693 168.384 27.16C170.005 26.0507 172.224 25.496 175.04 25.496C178.154 25.496 180.437 26.136 181.888 27.416C183.381 28.696 184.362 30.552 184.832 32.984C185.301 35.3733 185.536 38.2533 185.536 41.624V44.632H170.944V52.056C170.944 53.5493 171.072 54.7653 171.328 55.704C171.626 56.6427 172.074 57.3467 172.672 57.816C173.312 58.2427 174.122 58.456 175.104 58.456C176.128 58.456 176.896 58.2213 177.408 57.752C177.962 57.24 178.325 56.536 178.496 55.64C178.709 54.7013 178.816 53.6133 178.816 52.376V50.136H185.472V51.544C185.472 55.256 184.682 58.1787 183.104 60.312C181.525 62.4453 178.837 63.512 175.04 63.512ZM170.944 40.92H178.816V37.592C178.816 36.056 178.73 34.776 178.56 33.752C178.389 32.6853 178.026 31.896 177.472 31.384C176.96 30.8293 176.128 30.552 174.976 30.552C173.866 30.552 173.013 30.808 172.416 31.32C171.861 31.832 171.477 32.7067 171.264 33.944C171.05 35.1387 170.944 36.8027 170.944 38.936V40.92ZM198.393 63.512C196.943 63.512 195.663 63.1067 194.553 62.296C193.444 61.4427 192.569 60.376 191.929 59.096C191.289 57.7733 190.969 56.3867 190.969 54.936C190.969 52.632 191.353 50.6907 192.121 49.112C192.889 47.5333 193.935 46.2107 195.257 45.144C196.623 44.0347 198.18 43.0747 199.929 42.264C201.721 41.4533 203.599 40.664 205.561 39.896V37.272C205.561 35.7787 205.476 34.5413 205.305 33.56C205.135 32.5787 204.772 31.8533 204.217 31.384C203.705 30.872 202.916 30.616 201.849 30.616C200.911 30.616 200.143 30.8293 199.545 31.256C198.991 31.6827 198.585 32.3013 198.329 33.112C198.073 33.88 197.945 34.7973 197.945 35.864V37.72L191.161 37.464C191.247 33.368 192.185 30.36 193.977 28.44C195.769 26.4773 198.543 25.496 202.297 25.496C205.967 25.496 208.569 26.4987 210.105 28.504C211.641 30.5093 212.409 33.4107 212.409 37.208V54.104C212.409 55.256 212.431 56.3653 212.473 57.432C212.559 58.4987 212.644 59.5013 212.729 60.44C212.857 61.336 212.964 62.1893 213.049 63H206.777C206.649 62.3173 206.479 61.464 206.265 60.44C206.095 59.3733 205.967 58.4133 205.881 57.56C205.455 59.0107 204.623 60.376 203.385 61.656C202.191 62.8933 200.527 63.512 198.393 63.512ZM201.081 57.624C201.764 57.624 202.404 57.432 203.001 57.048C203.599 56.664 204.132 56.2373 204.601 55.768C205.071 55.256 205.391 54.8507 205.561 54.552V44.056C204.495 44.6533 203.492 45.2507 202.553 45.848C201.615 46.4453 200.783 47.0853 200.057 47.768C199.375 48.408 198.82 49.1547 198.393 50.008C198.009 50.8187 197.817 51.7573 197.817 52.824C197.817 54.3173 198.095 55.4907 198.649 56.344C199.204 57.1973 200.015 57.624 201.081 57.624ZM219.179 63V26.008H226.027V31.256C227.393 28.9947 228.758 27.48 230.123 26.712C231.489 25.944 232.854 25.56 234.219 25.56C234.39 25.56 234.539 25.56 234.667 25.56C234.838 25.56 235.051 25.5813 235.307 25.624V33.176C234.795 32.9627 234.198 32.792 233.515 32.664C232.875 32.4933 232.214 32.408 231.531 32.408C230.465 32.408 229.483 32.664 228.587 33.176C227.734 33.6453 226.881 34.584 226.027 35.992V63H219.179ZM249.662 63.512C246.632 63.512 244.328 62.9147 242.75 61.72C241.214 60.4827 240.168 58.7547 239.614 56.536C239.102 54.3173 238.846 51.736 238.846 48.792V40.28C238.846 37.1653 239.123 34.52 239.678 32.344C240.232 30.1253 241.278 28.44 242.814 27.288C244.392 26.0933 246.675 25.496 249.662 25.496C252.35 25.496 254.419 25.944 255.87 26.84C257.363 27.6933 258.387 28.9947 258.942 30.744C259.496 32.4507 259.774 34.584 259.774 37.144V39.32H253.566V37.08C253.566 35.4587 253.459 34.1787 253.246 33.24C253.032 32.3013 252.648 31.6187 252.094 31.192C251.539 30.7653 250.75 30.552 249.726 30.552C248.616 30.552 247.763 30.808 247.166 31.32C246.568 31.832 246.163 32.7067 245.95 33.944C245.779 35.1387 245.694 36.7813 245.694 38.872V50.52C245.694 53.6773 245.992 55.7893 246.59 56.856C247.187 57.9227 248.254 58.456 249.79 58.456C250.942 58.456 251.774 58.2 252.286 57.688C252.84 57.1333 253.182 56.3653 253.31 55.384C253.48 54.4027 253.566 53.2933 253.566 52.056V49.048H259.774V51.608C259.774 54.0827 259.475 56.216 258.878 58.008C258.323 59.8 257.299 61.1653 255.806 62.104C254.355 63.0427 252.307 63.512 249.662 63.512ZM266.054 63V11.16H272.902V29.848C274.14 28.6533 275.526 27.6293 277.062 26.776C278.598 25.9227 280.305 25.496 282.182 25.496C283.633 25.496 284.742 25.88 285.51 26.648C286.321 27.416 286.876 28.376 287.174 29.528C287.516 30.68 287.686 31.8533 287.686 33.048V63H280.838V35.032C280.838 33.7093 280.646 32.6853 280.262 31.96C279.878 31.2347 279.089 30.872 277.894 30.872C277.084 30.872 276.23 31.1067 275.334 31.576C274.481 32.0453 273.67 32.6213 272.902 33.304V63H266.054Z" fill="white"/>
<rect x="52" y="15" width="77" height="51" rx="15" fill="#111827"/>
<path d="M12.306 69.456C10.0873 69.456 8.082 69.2213 6.29 68.752C4.498 68.2827 3.09 67.536 2.066 66.512C1.042 65.488 0.53 64.144 0.53 62.48C0.53 61.2853 0.786 60.24 1.298 59.344C1.81 58.448 2.47133 57.68 3.282 57.04C4.09267 56.3573 4.946 55.8027 5.842 55.376C4.64733 55.0347 3.75133 54.5013 3.154 53.776C2.55667 53.008 2.258 52.2187 2.258 51.408C2.258 50.0427 2.62067 48.8693 3.346 47.888C4.07133 46.9067 5.074 45.84 6.354 44.688C4.946 43.6213 3.87933 42.256 3.154 40.592C2.42867 38.928 2.066 36.624 2.066 33.68C2.066 30.7787 2.45 28.368 3.218 26.448C4.02867 24.4853 5.202 23.0133 6.738 22.032C8.31667 21.008 10.2367 20.496 12.498 20.496C14.5033 20.496 16.1033 20.8373 17.298 21.52C18.5353 22.2027 19.474 23.2267 20.114 24.592C20.3273 24.2507 20.9033 23.6747 21.842 22.864C22.7807 22.0107 23.8687 21.3067 25.106 20.752L26.13 20.304L27.858 24.72C27.3033 24.8053 26.5567 25.0187 25.618 25.36C24.722 25.6587 23.8687 25.9787 23.058 26.32C22.29 26.6187 21.7993 26.8747 21.586 27.088C21.8847 27.8133 22.1407 28.8587 22.354 30.224C22.61 31.5893 22.738 32.8053 22.738 33.872C22.738 36.3893 22.418 38.608 21.778 40.528C21.138 42.448 20.0713 43.9627 18.578 45.072C17.1273 46.1387 15.1007 46.672 12.498 46.672C11.9433 46.672 11.346 46.6293 10.706 46.544C10.066 46.4587 9.49 46.352 8.978 46.224C8.722 46.608 8.44467 47.056 8.146 47.568C7.89 48.08 7.762 48.5707 7.762 49.04C7.762 49.5093 7.99667 49.8933 8.466 50.192C8.978 50.448 9.76733 50.6187 10.834 50.704L16.594 51.216C19.4953 51.472 21.65 52.3467 23.058 53.84C24.466 55.3333 25.17 57.4667 25.17 60.24C25.17 62.2453 24.7007 63.9307 23.762 65.296C22.8233 66.704 21.394 67.7493 19.474 68.432C17.5967 69.1147 15.2073 69.456 12.306 69.456ZM12.818 64.08C15.25 64.08 17.042 63.7813 18.194 63.184C19.346 62.6293 19.922 61.712 19.922 60.432C19.922 59.664 19.7727 59.024 19.474 58.512C19.218 58 18.7273 57.5947 18.002 57.296C17.2767 56.9973 16.2313 56.784 14.866 56.656L9.042 56.144C8.57267 56.6133 8.12467 57.0827 7.698 57.552C7.27133 58.0213 6.93 58.512 6.674 59.024C6.418 59.5787 6.29 60.1547 6.29 60.752C6.29 61.8613 6.75933 62.6933 7.698 63.248C8.63667 63.8027 10.3433 64.08 12.818 64.08ZM12.498 41.872C13.4793 41.872 14.2473 41.7013 14.802 41.36C15.3993 40.976 15.8473 40.4427 16.146 39.76C16.4447 39.0347 16.6367 38.16 16.722 37.136C16.85 36.112 16.914 34.96 16.914 33.68C16.914 32.4 16.85 31.248 16.722 30.224C16.6367 29.1573 16.4447 28.2613 16.146 27.536C15.89 26.768 15.4633 26.192 14.866 25.808C14.3113 25.424 13.5433 25.232 12.562 25.232C11.6233 25.232 10.834 25.424 10.194 25.808C9.59667 26.192 9.14867 26.7467 8.85 27.472C8.55133 28.1547 8.338 29.0293 8.21 30.096C8.082 31.12 8.018 32.3147 8.018 33.68C8.018 34.832 8.06067 35.92 8.146 36.944C8.274 37.9253 8.48733 38.7787 8.786 39.504C9.12733 40.2293 9.59667 40.8053 10.194 41.232C10.7913 41.6587 11.5593 41.872 12.498 41.872ZM37.1745 58.512C35.7238 58.512 34.4438 58.1067 33.3345 57.296C32.2252 56.4427 31.3505 55.376 30.7105 54.096C30.0705 52.7733 29.7505 51.3867 29.7505 49.936C29.7505 47.632 30.1345 45.6907 30.9025 44.112C31.6705 42.5333 32.7158 41.2107 34.0385 40.144C35.4038 39.0347 36.9612 38.0747 38.7105 37.264C40.5025 36.4533 42.3798 35.664 44.3425 34.896V32.272C44.3425 30.7787 44.2572 29.5413 44.0865 28.56C43.9158 27.5787 43.5532 26.8533 42.9985 26.384C42.4865 25.872 41.6972 25.616 40.6305 25.616C39.6918 25.616 38.9238 25.8293 38.3265 26.256C37.7718 26.6827 37.3665 27.3013 37.1105 28.112C36.8545 28.88 36.7265 29.7973 36.7265 30.864V32.72L29.9425 32.464C30.0278 28.368 30.9665 25.36 32.7585 23.44C34.5505 21.4773 37.3238 20.496 41.0785 20.496C44.7478 20.496 47.3505 21.4987 48.8865 23.504C50.4225 25.5093 51.1905 28.4107 51.1905 32.208V49.104C51.1905 50.256 51.2118 51.3653 51.2545 52.432C51.3398 53.4987 51.4252 54.5013 51.5105 55.44C51.6385 56.336 51.7452 57.1893 51.8305 58H45.5585C45.4305 57.3173 45.2598 56.464 45.0465 55.44C44.8758 54.3733 44.7478 53.4133 44.6625 52.56C44.2358 54.0107 43.4038 55.376 42.1665 56.656C40.9718 57.8933 39.3078 58.512 37.1745 58.512ZM39.8625 52.624C40.5452 52.624 41.1852 52.432 41.7825 52.048C42.3798 51.664 42.9132 51.2373 43.3825 50.768C43.8518 50.256 44.1718 49.8507 44.3425 49.552V39.056C43.2758 39.6533 42.2732 40.2507 41.3345 40.848C40.3958 41.4453 39.5638 42.0853 38.8385 42.768C38.1558 43.408 37.6012 44.1547 37.1745 45.008C36.7905 45.8187 36.5985 46.7573 36.5985 47.824C36.5985 49.3173 36.8758 50.4907 37.4305 51.344C37.9852 52.1973 38.7958 52.624 39.8625 52.624ZM57.7685 58V21.008H64.1045V24.528C65.3418 23.12 66.7072 22.0747 68.2005 21.392C69.6938 20.7093 71.2298 20.368 72.8085 20.368C74.1738 20.368 75.3898 20.7093 76.4565 21.392C77.5658 22.0747 78.3552 23.2907 78.8245 25.04C80.1472 23.4187 81.5765 22.2453 83.1125 21.52C84.6912 20.752 86.3338 20.368 88.0405 20.368C89.2352 20.368 90.3232 20.6667 91.3045 21.264C92.2858 21.8187 93.0752 22.736 93.6725 24.016C94.2698 25.2533 94.5685 26.896 94.5685 28.944V58H88.2965V29.392C88.2965 27.6 87.9978 26.4053 87.4005 25.808C86.8458 25.168 86.0778 24.848 85.0965 24.848C84.1578 24.848 83.1765 25.1253 82.1525 25.68C81.1285 26.192 80.1898 26.9173 79.3365 27.856C79.3365 28.0267 79.3365 28.1973 79.3365 28.368C79.3365 28.5387 79.3365 28.7307 79.3365 28.944V58H73.0645V29.392C73.0645 27.6 72.7658 26.4053 72.1685 25.808C71.6138 25.168 70.8458 24.848 69.8645 24.848C68.9258 24.848 67.9445 25.1253 66.9205 25.68C65.9392 26.192 65.0005 26.9173 64.1045 27.856V58H57.7685ZM111.509 58.512C108.607 58.512 106.367 57.9573 104.789 56.848C103.21 55.696 102.101 54.032 101.461 51.856C100.863 49.6373 100.565 46.928 100.565 43.728V35.28C100.565 31.9947 100.885 29.264 101.525 27.088C102.165 24.912 103.274 23.2693 104.853 22.16C106.474 21.0507 108.693 20.496 111.509 20.496C114.623 20.496 116.906 21.136 118.357 22.416C119.85 23.696 120.831 25.552 121.301 27.984C121.77 30.3733 122.005 33.2533 122.005 36.624V39.632H107.413V47.056C107.413 48.5493 107.541 49.7653 107.797 50.704C108.095 51.6427 108.543 52.3467 109.141 52.816C109.781 53.2427 110.591 53.456 111.573 53.456C112.597 53.456 113.365 53.2213 113.877 52.752C114.431 52.24 114.794 51.536 114.965 50.64C115.178 49.7013 115.285 48.6133 115.285 47.376V45.136H121.941V46.544C121.941 50.256 121.151 53.1787 119.573 55.312C117.994 57.4453 115.306 58.512 111.509 58.512ZM107.413 35.92H115.285V32.592C115.285 31.056 115.199 29.776 115.029 28.752C114.858 27.6853 114.495 26.896 113.941 26.384C113.429 25.8293 112.597 25.552 111.445 25.552C110.335 25.552 109.482 25.808 108.885 26.32C108.33 26.832 107.946 27.7067 107.733 28.944C107.519 30.1387 107.413 31.8027 107.413 33.936V35.92Z" fill="#E3C5FF"/>
<ellipse cx="178.5" cy="101.5" rx="120.5" ry="30.5" fill="#111827"/>
<ellipse cx="178.5" cy="-22.5" rx="120.5" ry="30.5" fill="#111827"/>
</svg>
